<?xml version="1.0" encoding="UTF-8"?>
<svg width="60mm" height="60mm" version="1.1" viewBox="0 0 60 60" xmlns="http://www.w3.org/2000/svg">
<g transform="matrix(.99947 0 0 1.0546 -.51306 -4.2447)" fill="none" stroke="#000">
<path d="m54.452 19.11h1.2329l0.10274 29.178s-7.5277-0.66449-11.302-0.67361c-4.733-0.01143-14.178 0.77635-14.178 0.77635s-9.8589-0.5946-14.794-0.57483c-3.36 0.01346-10.069 0.47209-10.069 0.47209l-0.20548-29.384 1.0274 0.10274" stroke-linecap="round" stroke-linejoin="round"/>
<path d="m9.4521 17.26-2.0548-0.92466v29.795s6.3955-0.20856 9.5791 0.0372c4.4812 0.34592 13.332 2.0176 13.332 2.0176s8.8585-2.0333 13.372-2.403c3.3058-0.27079 9.9497 0.14276 9.9497 0.14276l-0.20548-29.589-2.5685 0.71918" stroke-linecap="round" stroke-linejoin="round"/>
<path d="m30.205 19.212s-6.0575-3.1405-9.2968-4.1541c-3.2764-1.0252-10.121-1.9076-10.121-1.9076l0.20548 30.514s6.071 0.4197 9.0194 1.1155c3.5081 0.82785 10.193 3.6106 10.193 3.6106s6.1191-2.8128 9.3645-3.6389c3.2743-0.83345 10.053-1.2926 10.053-1.2926v-30.308s-7.0477 1.1952-10.444 2.2715c-3.0954 0.98096-8.9739 3.7902-8.9739 3.7902z" stroke-linecap="round" stroke-linejoin="round"/>
<path d="m30.293 19.212v29.075"/>
<path d="m14.384 20.856c0.23083-0.16078 0.3953-0.76272 0.71918-0.92466 0.06761-0.0338 0.19355 0.81596 0.41096 0.92466 0.61257 0.30628 1.425-0.36624 1.9521-0.10274 0.3161 0.15805 0.29855 0.61322 0.61644 0.71918 0.63253 0.21084 1.2067-0.78364 1.9521-0.41096 0.38865 0.19432 0.46438 0.95137 0.82192 1.1301 0.53738 0.26869 1.3624-0.50033 1.9521-0.20548 0.86396 0.43198 1.7022 1.1301 2.8767 1.1301" stroke-linecap="round"/>
<path d="m14.486 25.377c0.15191 0.22105 2.5086-0.57363 2.5685-0.5137 0.35234 0.35234 0.26463 1.0326 0.71918 1.3356 0.5943 0.3962 1.1601-1.0124 1.7466-0.71918 0.35498 0.17749 0.16077 0.74819 0.5137 0.92466 0.4233 0.21165 0.90383-0.24644 1.2329-0.41096 0.26238-0.13119 0.69942 0.61644 1.1301 0.61644" stroke-linecap="round"/>
<path d="m14.589 28.973c0.34247 0 0.69046-0.06126 1.0274 0 0.06314 0.01148 0.52573 0.83395 0.61644 0.92466 0.34812 0.34812 1.1843-0.85837 1.6438-0.5137 0.32114 0.24086 0.49735 0.8392 0.92466 0.92466 0.82604 0.16521 1.1093-0.40401 1.7466-0.61644 0.61192-0.20397 0.5266 0.31468 0.92466 0.5137 0.44913 0.22456 1.0156-0.6135 1.4384-0.71918 0.62006-0.15501 0.52041 0.62315 0.82192 0.92466 0.1803 0.1803 1.0963-0.43394 1.3356-0.5137 0.39122-0.13041 0.59475 0.57449 0.92466 0.82192" stroke-linecap="round"/>
<path d="m33.39 22.397c-0.2255 0.37724 0.3725-0.44942 0.5137-0.30822 1.1078 1.1078 2.4208-0.80693 3.6986-1.2329 0.82556-0.27518 0.91312 1.3395 1.8493 1.0274 1.742-0.58068 2.6051-1.1766 4.3151-1.7466 0.42185-0.14062 0.38518 0.78344 0.71918 0.61644 0.9988-0.4994 1.2329-1.2329 2.2603-1.0274" stroke-linecap="round"/>
<path d="m14.795 33.39c0.29843 0.51033 1.4186-0.80012 1.7466-0.30822 0.11186 0.16779 0.18934 1.2409 0.61644 1.0274 0.15028-0.07514 0.80751-0.85072 0.82192-0.82192 0.1412 0.28239 0.06032 0.85208 0.41096 1.0274 0.64412 0.32206 1.0798-0.7702 1.5411-0.61644 0.41834 0.13945 0.46412 0.74044 0.92466 0.92466" stroke-linecap="round" stroke-linejoin="round"/>
<path d="m15.205 37.705c0.14706-0.4105 0.33419-0.73216 0.71918-0.92466 0.53076-0.26538 0.4133 0.927 0.61644 1.1301 0.2342 0.2342 0.74953-0.46933 0.92466-0.41096 0.3932 0.13107 0.04195 0.53467 0.41096 0.71918 0.74811 0.37406 1.1277-0.92562 3.1849-0.10274" stroke-linecap="round" stroke-linejoin="round"/>
<path d="m15.205 41.096c0.41486 0.7536 2.5765-0.60842 2.774-0.41096 0.68647 0.68648 1.9605 1.2244 2.5685 0.61644" stroke-linecap="round" stroke-linejoin="round"/>
<path d="m22.603 33.904-0.10274 8.0137 4.0068 1.6438 0.41096-8.7329z" stroke-linecap="round" stroke-linejoin="round"/>
<path d="m34.212 26.61c-0.77862 0.3068 1.8409-1.2884 2.363-1.0274 0.06395 0.03198 0.99723 1.4836 1.2329 1.1301 1.636-2.454 1.4506-0.41914 1.7466-0.61644 2.1849-1.4566 1.1896-0.02976 1.9521-0.41096 0.461-0.2305 0.46062-1.0009 0.92466-1.2329 0.44777-0.22388 0.68152 0.70663 1.0274 0.82192 0.28955 0.09652 0.68907-0.6064 1.0274-0.71918 0.7255-0.24183 1.3366 0.23044 2.0548-0.30822" stroke-linecap="round" stroke-linejoin="round"/>
<path d="m34.007 30c0.52813-0.87853 1.1415 0.8391 1.4384 0.61644 0.5398-0.40484 0.86351-1.3152 1.5411-1.5411 0.50714-0.16905 0.53742 1.6965 1.2329 1.2329 0.56043-0.37362 0.76496-1.2139 1.4384-1.4384 0.60445-0.20148 0.56864 1.2054 1.1301 0.92466 1.9075-0.95376 1.7051-0.06129 2.8767-1.2329 0.25468-0.25468 0.7716 0.56612 0.82192 0.61644 0.33103 0.33102 1.3842-0.4909 1.5411-0.61644" stroke-linecap="round" stroke-linejoin="round"/>
<path d="m34.623 34.11c0.31586-0.31585 0.41802-0.56999 0.92466-0.5137 0.41786 0.04643 0.63348 0.71492 1.0274 0.61644 0.55411-0.13853 1.0328-1.6211 1.7466-1.3356 0.21371 0.08548 0.81806 0.82449 0.82192 0.82192 0.39596-0.26397 0.55004-1.0419 1.0274-1.2329 0.51514-0.20606 1.0406 0.52032 1.4384 0.71918 0.13482 0.06741 0.56905-0.63489 0.82192-0.71918 0.67153-0.22384 1.2804 0.07109 1.8493-0.30822" stroke-linecap="round" stroke-linejoin="round"/>
<path d="m34.315 38.425c0.31965 0.56106 3.7295 0.05636 3.9041-0.20548 0.32622-0.48932 0.66295-1.2561 1.2329-1.5411 0.22708-0.11354 0.68184 0.9947 1.0274 0.82192 0.36522-0.18261 0.41177-0.82232 0.82192-1.0274 0.3043-0.15215 0.9068 0.42881 1.1301 0.20548 0.48683-0.48683 3.312-1.3308 3.8014-1.2329" stroke-linecap="round" stroke-linejoin="round"/>
<path d="m34.726 42.637c0.92825 0.56679 2.606-1.1519 2.9795-1.0274 0.57827 0.19276 0.62706 1.2456 1.6438 0.82192 1.591-0.66292 1.5212-3.0201 3.0822-1.8493" stroke-linecap="round" stroke-linejoin="round"/>
</g>
</svg>
