<?xml version="1.0" encoding="UTF-8"?>
<svg width="60mm" height="60mm" version="1.1" viewBox="0 0 60 60" xmlns="http://www.w3.org/2000/svg">
<g fill="none" stroke="#000">
<ellipse cx="29.435" cy="22.433" rx="12.54" ry="12.026" stroke-dashoffset="34.016" stroke-linecap="round" stroke-linejoin="round" stroke-width="1.0918" style="paint-order:stroke markers fill"/>
<path d="m24.632 35.682s-3.0318 2.5429-4.2085 4.112c-3.5387 4.7189-8.3257 15.614-8.3257 15.614" stroke-linecap="round"/>
<path d="m34.253 36.195s3.7939 2.9247 5.2073 4.8215c3.3077 4.4392 7.3269 14.904 7.3269 14.904" stroke-linecap="round"/>
<path d="m23.63 27.226s3.4167 3.1161 5.5479 3.1849c2.1737 0.07016 5.8562-2.8767 5.8562-2.8767" stroke-linecap="round"/>
<circle cx="24.966" cy="19.726" r=".82192" stroke-dashoffset="34.016" stroke-linecap="round" stroke-linejoin="round" style="paint-order:stroke markers fill"/>
<circle cx="33.082" cy="19.623" r=".82192" stroke-dashoffset="34.016" stroke-linecap="round" stroke-linejoin="round" style="paint-order:stroke markers fill"/>
<path d="m52.971 6.158s-1.3973-2.3675-2.5331-2.2907c-0.83206 0.056251-1.6129 1.9126-1.6129 1.9126s-2.0847-1.5828-3.2252-1.3456c-1.6378 0.34066-3.5657 1.9485-3.4769 3.6189 0.05006 0.94092 2.1636 1.8191 2.1636 1.8191s-3.3971 0.68038-3.4052 1.9961c-0.01205 1.9481 3.0606 2.8979 5.0051 3.0177 0.96681 0.05955 2.6539-1.1837 2.6539-1.1837s0.62689 1.9146 1.441 1.9823c1.3134 0.10932 2.8215-2.7698 2.8215-2.7698s1.0682 0.77376 1.631 0.62484c1.1516-0.30471 1.883-1.6345 2.2683-2.7617 0.28798-0.84256 0.72191-2.2775-0.07727-2.6701-0.7332-0.36021-1.9823 1.441-1.9823 1.441l-1.1388-2.1966z"/>
<path d="m14.794 26.215s-0.98478 2.1192-1.9679 2.2158c-0.97657 0.09596-2.3458-1.7785-2.3458-1.7785s-1.6334 2.5949-2.8103 2.3061c-0.96966-0.23802-1.1725-2.7563-1.1725-2.7563s-1.9284 0.77299-2.7448 0.3443c-1.1526-0.60521-2.307-2.267-1.7999-3.466 0.3522-0.83272 2.5979-0.77965 2.5979-0.77965s-2.4022-3.065-1.4832-4.2517c0.37801-0.48814 1.2954-0.12652 1.8458 0.15302 0.64918 0.32966 1.43 1.6511 1.43 1.6511s1.4678-1.7429 2.3917-1.5344c0.78274 0.17662 1.2716 2.044 1.2716 2.044s0.83099-2.2156 1.7502-2.1423c0.99704 0.07951 1.5061 2.5953 1.5061 2.5953l1.3485-0.74599"/>
<ellipse cx="8.7682" cy="1.5925" rx="6.4726" ry="5.7021" stroke-dashoffset="34.016" stroke-linecap="round" stroke-linejoin="round" style="paint-order:stroke markers fill"/>
<path d="m7.1881 9.187-1.02 4.1978" stroke-linecap="round"/>
<path d="m14.427 8.0217 2.2763 3.6716" stroke-linecap="round"/>
<path d="m16.878 5.628 3.6725 2.2748" stroke-linecap="round"/>
<path d="m11.043 9.5584 0.6087 4.2769" stroke-linecap="round"/>
<path d="m3.513 8.2413-1.9 3.8797" stroke-linecap="round"/>
<path d="m17.895 2.6754 4.2992 0.42258" stroke-linecap="round"/>
</g>
</svg>
