<?xml version="1.0" encoding="UTF-8"?>
<svg width="60mm" height="60mm" version="1.1" viewBox="0 0 60 60" xmlns="http://www.w3.org/2000/svg">
<g transform="matrix(1.2094 0 0 1.2094 -91.823 -16.725)" stroke="#245214" stroke-linecap="round" stroke-linejoin="round">
<path d="m100.65 57.022v2.6526m-21.072-20.381h2.6526m36.301 0.09277h2.6526m-20.788-20.758v2.6526m21.242 17.675a21.137 21.137 0 0 1-21.137 21.137 21.137 21.137 0 0 1-21.137-21.137 21.137 21.137 0 0 1 21.137-21.137 21.137 21.137 0 0 1 21.137 21.137z" fill="none" stroke-width="4.2319"/>
<path d="m115.22 25.512-14.694 12.674 0.0936-19.539c5.3541-0.39206 10.226 1.8698 14.6 6.8656z" fill="#245214" stroke-width="4.4643"/>
</g>
</svg>
