<?xml version="1.0" encoding="UTF-8"?>
<svg width="60mm" height="60mm" version="1.1" viewBox="0 0 60 60" xmlns="http://www.w3.org/2000/svg">
<g transform="matrix(.99947 0 0 1.0546 -.51306 -4.2447)" fill="none" stroke="#6161e4">
<path d="m48.73 21.181 6.9552-2.0707 0.10274 29.178s-7.5277-0.66449-11.302-0.67361c-4.733-0.01143-14.178 0.77635-14.178 0.77635s-9.8589-0.5946-14.794-0.57483c-3.36 0.01346-10.069 0.47209-10.069 0.47209l-0.20548-29.384 6.8537 1.9762" stroke-linecap="round" stroke-linejoin="round" stroke-width="4.8701"/>
<path d="m30.669 19.212s-5.0869-3.1405-7.8072-4.1541c-2.7514-1.0252-9.0195-2.8936-9.0195-2.8936l0.06852 27.655s5.9306 0.71551 8.1985 1.8057c2.7379 1.5181 8.5598 6.7659 8.5598 6.7659s5.6589-5.9681 8.3843-6.7942c2.7497-0.83345 7.922-2.18 7.922-2.18v-27.251s-5.9185 2.1812-8.7706 3.2575c-2.5994 0.98096-7.536 3.7902-7.536 3.7902z" stroke-linecap="round" stroke-linejoin="round" stroke-width="4.463"/>
<path d="m30.293 19.212v29.075" stroke-width="4.8701"/>
</g>
</svg>