<?xml version="1.0" encoding="UTF-8"?>
<svg width="60mm" height="60mm" version="1.1" viewBox="0 0 60 60" xmlns="http://www.w3.org/2000/svg">
<g fill="none" stroke="#f95" stroke-linecap="round" stroke-width="5">
<ellipse cx="29.985" cy="29.786" rx="23.288" ry="22.872" style="paint-order:stroke markers fill"/>
<path d="m19.445 38.389c2.5784 3.0524 6.5075 4.9197 10.503 4.9913 4.1177 0.07381 8.2305-1.7672 10.919-4.8873"/>
<path d="m33.997 25.167c0.39496 0.76794 1.0007 1.4261 1.7333 1.8834 0.73258 0.45722 1.59 0.7122 2.4534 0.72962 0.88552 0.01786 1.7747-0.21454 2.5383-0.66338s1.3991-1.1128 1.8142-1.8952"/>
<path d="m16.632 25.323c0.39496 0.76794 1.0007 1.4261 1.7333 1.8834 0.73258 0.45722 1.59 0.7122 2.4534 0.72962 0.88552 0.01786 1.7747-0.21454 2.5383-0.66338s1.3991-1.1128 1.8142-1.8952" stroke-linejoin="round"/>
</g>
</svg>