<?xml version="1.0" encoding="UTF-8"?>
<svg width="60mm" height="60mm" version="1.1" viewBox="0 0 60 60" xmlns="http://www.w3.org/2000/svg">
<g>
<g transform="matrix(1.3082 0 0 1.3082 -9.9911 -8.5459)" stroke-width="0">
<path d="m10.037 23.588 3.7979-2.2607 0.45213 5.1543z" fill="#827a45"/>
<path d="m14.287 25.952c-0.80933 0.49766-1.6187 0.99535-1.9186 1.9543-0.29985 0.95898-0.0901 2.3788 0.32944 4.2586 0.41954 1.8798 1.0488 4.2193 1.2343 6.1877 0.18549 1.9684-0.07266 3.5658 0.01619 4.7517 0.08885 1.186 0.52449 1.9604 1.1296 2.7268 0.60512 0.76639 1.3796 1.5247 2.5655 2.0409 1.186 0.51622 2.7833 0.7905 4.5903 0.45161 1.807-0.3389 3.8239-1.2908 5.3405-2.388 1.5166-1.0971 2.5331-2.3395 3.1946-3.6302 0.66153-1.2907 0.96808-2.6299 0.95202-3.8158-0.01606-1.1859-0.35489-2.2185-1.0002-3.0656-0.64531-0.84715-1.5973-1.5087-2.7267-1.9847-1.1295-0.47606-2.4363-0.76647-3.5658-1.4521-1.1295-0.68564-2.0814-1.7667-3.2835-3.0252-1.2021-1.2586-2.6542-2.6945-3.8388-3.2259s-2.1017-0.1578-3.0189 0.21584" fill="#69a96b"/>
<path d="m38.24 10.843 2.4202 4.6469 2.1298-4.6469z" fill="#827a45"/>
<path d="m29.713 23.84c0.25017 1.3957 0.87944 2.864 1.8638 4.0983 0.98433 1.2343 2.3235 2.2346 3.7999 2.9284 1.4764 0.69373 3.0898 1.081 4.6791 1.1939 1.5893 0.11289 3.1543-0.04845 4.7113-0.6858 1.5569-0.63735 3.1059-1.7506 4.2514-2.88 1.1455-1.1294 1.8877-2.275 2.2347-3.6302 0.34693-1.3552 0.29852-2.9203-0.10477-4.3482-0.40329-1.4279-1.1616-2.7187-2.0732-3.7191-0.91158-1.0004-1.9765-1.7104-3.0495-2.0816-1.073-0.3712-2.154-0.40347-3.0496-0.21794-0.89559 0.18553-1.6055 0.58888-2.1298 0.68582-0.52429 0.09693-0.86311-0.11282-1.3875-0.37907s-1.2343-0.58895-2.0008-0.67778c-0.76647-0.08883-1.5893 0.05638-2.4526 0.3226-0.86327 0.26622-1.7668 0.65344-2.6543 1.5652-0.88753 0.91171-1.7588 2.3477-2.259 3.7273-0.50018 1.3796-0.62926 2.7027-0.37909 4.0984z" fill="#df2f39"/>
</g>
</g>
</svg>